<?xml version="1.0" standalone="no"?><!DOCTYPE svg PUBLIC "-//W3C//DTD SVG 1.1//EN" "http://www.w3.org/Graphics/SVG/1.1/DTD/svg11.dtd"><svg t="1670208062580" class="icon" viewBox="0 0 1024 1024" version="1.1" xmlns="http://www.w3.org/2000/svg" p-id="814" xmlns:xlink="http://www.w3.org/1999/xlink" width="200" height="200"><path d="M497.1 342.3S577.4 248.5 720 273c0 0-102.6 53-107 134.6l-115.9-65.3z" fill="#60C64A" p-id="815"></path><path d="M472.5 343.3s-80.3-93.8-222.9-69.3c0 0 122.2 53 126.7 134.6l96.2-65.3z" fill="#47A52D" p-id="816"></path><path d="M453.8 367.2S524.3 187 684.5 183.7c0 0-126.8 92-83.6 247.7l-147.1-64.2z" fill="#60C64A" p-id="817"></path><path d="M543.1 383.5S472.6 203.3 312.4 200c0 0 126.8 92 83.6 247.7l147.1-64.2z" fill="#47A52D" p-id="818"></path><path d="M383.9 117s132.9 26.4 185.2 228.7l-112.6 29.1s12.2-139.5-72.6-257.8z" fill="#4EB236" p-id="819"></path><path d="M590.7 93.9s-125.5 47.8-137.1 255.5l116.5 10c0.1 0-39.5-135.2 20.6-265.5z" fill="#66D64C" p-id="820"></path><path d="M543.7 929.7h-65.3c-121 0-220-99-220-220V561c0-121 99-220 220-220h65.3c121 0 220 99 220 220v148.7c0 121-99 220-220 220z" fill="#FFB600" p-id="821"></path><path d="M506.1 929.7h-27.6c-121 0-220-99-220-220V561c0-121 99-220 220-220h27.6c121 0 220 99 220 220v148.7c0 121-99 220-220 220z" fill="#FFDB45" p-id="822"></path></svg>